<svg xmlns="http://www.w3.org/2000/svg" width="25" height="23" viewBox="0 0 25 23"><g><g><path fill="#fff" d="M0 .937C0 .422.416.001.925.001h3.344c.416 0 .785.28.893.687L8.938 14.53H19.23l3.421-7.968H11.25a.934.934 0 0 1-.924-.938c0-.515.416-.937.924-.937h12.82c.31 0 .602.156.771.422.17.265.2.593.078.89l-4.223 9.844a.926.926 0 0 1-.847.563H8.244a.927.927 0 0 1-.894-.688L3.575 1.874H.925A.934.934 0 0 1 0 .937zm5.27 19.938c0-1.172.94-2.125 2.096-2.125 1.156 0 2.096.953 2.096 2.125 0 1.172-.94 2.125-2.096 2.125-1.156 0-2.096-.953-2.096-2.125zm13.114.14c-.077-1.156.786-2.187 1.942-2.265 1.155-.078 2.157.813 2.234 1.97.03.577-.139 1.123-.509 1.546-.37.437-.878.687-1.433.734h-.154c-1.094 0-2.003-.875-2.08-1.984z"/></g></g></svg>